<svg xmlns="http://www.w3.org/2000/svg" viewBox="0 0 994.93 403.9"><defs><style>.cls-1{fill:#4772ae;}.cls-2{fill:#b5475d;}.cls-3{fill:#221f20;}</style></defs><g id="Layer_2" data-name="Layer 2"><g id="Layer_1-2" data-name="Layer 1"><path class="cls-1" d="M878.72,71.61c-113.2-85-270.22-46.47-336.08,68.48,1.24-.14,2.49-.27,3.74-.38C612.88,30.26,765.69-5.66,874.56,77.12,963.11,143.39,984.81,258.61,943.88,350h4.65C990.84,257.28,969,140.09,878.72,71.61Z"/><path class="cls-2" d="M942.3,227.22C928.44,116.22,822.18,36,711.63,53.15,650.39,62.78,603.45,95.73,574,139.26h5.2C642,54.75,767.3,30.37,858,99.12c81.29,61,98.65,168.94,55.81,250.86h6.07C938.85,315,947.92,273.16,942.3,227.22Z"/><path class="cls-1" d="M917,230.77C905.1,133.51,812,63.2,715.17,78.49c-46.24,7.43-83.06,30.1-108.68,60.77h8.19a170.89,170.89,0,0,1,39-30.35c130.72-73.27,285.51,43.51,250.93,189.32A171.35,171.35,0,0,1,882.53,350h7.1C911.24,317.26,922.38,276.36,917,230.77Z"/><path class="cls-2" d="M891.62,234.31c-6.92-60.53-53.82-113.44-113.07-127.7C730,93.7,679.42,108.06,643.13,139.26h13.34c3.55-2.41,7.19-4.74,11-6.88,109.78-60.56,238.88,36.83,210.77,159A141.48,141.48,0,0,1,849.17,350h7.93C882.54,320.24,896.94,280.09,891.62,234.31Z"/><path class="cls-1" d="M866.27,237.86c-7.56-69.48-75.12-120.49-144-108.7a129.73,129.73,0,0,0-32.75,10.1H738a114.33,114.33,0,0,1,101.48,61.65c13.62,23.67,19.21,52.64,12.4,83.66A114.38,114.38,0,0,1,810.79,350h9.07C851.39,325.11,871.45,285.14,866.27,237.86Z"/><path class="cls-2" d="M894,51.3C764.35-46.47,582.25,2.36,513.26,139.72h2.19C584.86,6,764.47-41.19,891.16,55.12c96.26,72.07,121.94,195.68,81.53,296.44,1,.18,2,.36,3,.57C1017.41,250.36,991.72,125.11,894,51.3Z"/><path class="cls-2" d="M823.45,202.64a80.82,80.82,0,0,0-33-33.9c-14.21-7.83-31.38-11.81-51-11.81H668.89V354.15h70c19.83,0,37.14-4,51.45-11.85a80.66,80.66,0,0,0,33.16-34.06c7.68-14.68,11.57-32.48,11.57-52.89S831.13,217.27,823.45,202.64Zm-111.56-8.48h25.33c12,0,22.15,2.14,30.29,6.38a40.86,40.86,0,0,1,18.37,19.8c4.14,9,6.24,20.77,6.24,35s-2.1,26.23-6.24,35.25-10.31,15.66-18.42,19.89-18.38,6.44-30.34,6.44H711.89Z"/><path class="cls-2" d="M608,213.15l57.77-56.22-5.19.6H538.09L523.68,191.2h58.76L533.12,247,579,240.83l.09,0a42.8,42.8,0,1,1-45.17,42.69v-1.92H499.69v1.92c0,42.53,34.49,77.12,76.87,77.12S653.43,326,653.43,283.5A76.77,76.77,0,0,0,608,213.15Z"/><path class="cls-3" d="M0,199.57l1.1-42.52H140.16l-12.62,42.52h-37v155H41.14v-155Z"/><path class="cls-3" d="M141.25,180.91a25,25,0,0,1,7.27-18,23.65,23.65,0,0,1,17.69-7.55,25.3,25.3,0,0,1,25.24,25.24A24,24,0,0,1,184,198.19q-7.39,7.41-17,7.41a25.76,25.76,0,0,1-18.11-7.13A23,23,0,0,1,141.25,180.91Zm1.37,173.62V234.4l45.26-23.32V354.53Z"/><path class="cls-3" d="M303.08,229.74V174.83l45.25-23.61V354.53H305.27V339.17q-8.52,12.9-22.77,16.19t-21.12,3.29q-22.77,0-39.35-16.19T203.1,310.79q-2.34-15.5-2.6-19.62t-.28-7.67q0-26.88,13.71-45.67T240,216.3q12.34-2.75,15.64-3c2.19-.18,4.56-.28,7.12-.28a56.42,56.42,0,0,1,37.58,14Zm-56.23,53.48q0,15.09,6.44,24.69t13.58,11.24a52.18,52.18,0,0,0,10.69,1.64,24.21,24.21,0,0,0,18.24-7.54q7.27-7.53,7.28-20.16,0-23.31-4.26-32.5t-12.2-11a60.34,60.34,0,0,0-11-1.78,26,26,0,0,0-20.56,9.6Q246.85,267,246.85,283.22Z"/><path class="cls-3" d="M353,216.3h49.37l26.88,76L432,303.79c.18,1.65.42,3.2.69,4.67a30.87,30.87,0,0,1,.41,5.48l1.64-10.42,2.47-11.8,28-75.42h49.92L434.72,403.9H384l26.06-54Z"/></g></g></svg>